<svg version="1.1" xmlns="http://www.w3.org/2000/svg" xmlns:xlink="http://www.w3.org/1999/xlink" width="1100" height="563"><defs/><g><text fill="#eeeeee" stroke="none" font-family="Arial" font-size="24px" font-style="normal" font-weight="normal" text-decoration="none" x="0" y="0"></text><text fill="#eeeeee" stroke="none" font-family="Arial" font-size="24px" font-style="normal" font-weight="normal" text-decoration="none" x="0" y="30"></text><text fill="#eeeeee" stroke="none" font-family="Arial" font-size="24px" font-style="normal" font-weight="normal" text-decoration="none" x="0" y="60"></text><text fill="#eeeeee" stroke="none" font-family="Arial" font-size="24px" font-style="normal" font-weight="normal" text-decoration="none" x="0" y="90"></text><text fill="#eeeeee" stroke="none" font-family="Arial" font-size="24px" font-style="normal" font-weight="normal" text-decoration="none" x="0" y="120"></text><text fill="#eeeeee" stroke="none" font-family="Arial" font-size="24px" font-style="normal" font-weight="normal" text-decoration="none" x="0" y="150"></text><text fill="#eeeeee" stroke="none" font-family="Arial" font-size="24px" font-style="normal" font-weight="normal" text-decoration="none" x="0" y="180"></text><text fill="#eeeeee" stroke="none" font-family="Arial" font-size="24px" font-style="normal" font-weight="normal" text-decoration="none" x="0" y="210"></text><text fill="#eeeeee" stroke="none" font-family="Arial" font-size="24px" font-style="normal" font-weight="normal" text-decoration="none" x="0" y="240"></text><text fill="#eeeeee" stroke="none" font-family="Arial" font-size="24px" font-style="normal" font-weight="normal" text-decoration="none" x="0" y="270"></text><text fill="#eeeeee" stroke="none" font-family="Arial" font-size="24px" font-style="normal" font-weight="normal" text-decoration="none" x="0" y="300"></text><text fill="#eeeeee" stroke="none" font-family="Arial" font-size="24px" font-style="normal" font-weight="normal" text-decoration="none" x="0" y="330"></text><text fill="#eeeeee" stroke="none" font-family="Arial" font-size="24px" font-style="normal" font-weight="normal" text-decoration="none" x="0" y="360"></text><text fill="#eeeeee" stroke="none" font-family="Arial" font-size="24px" font-style="normal" font-weight="normal" text-decoration="none" x="0" y="390"></text><text fill="#eeeeee" stroke="none" font-family="Arial" font-size="24px" font-style="normal" font-weight="normal" text-decoration="none" x="0" y="420"></text><text fill="#eeeeee" stroke="none" font-family="Arial" font-size="24px" font-style="normal" font-weight="normal" text-decoration="none" x="0" y="450"></text><text fill="#eeeeee" stroke="none" font-family="Arial" font-size="24px" font-style="normal" font-weight="normal" text-decoration="none" x="0" y="480"></text><text fill="#eeeeee" stroke="none" font-family="Arial" font-size="24px" font-style="normal" font-weight="normal" text-decoration="none" x="0" y="510"></text><text fill="#eeeeee" stroke="none" font-family="Arial" font-size="24px" font-style="normal" font-weight="normal" text-decoration="none" x="0" y="540"></text><text fill="#eeeeee" stroke="none" font-family="Arial" font-size="24px" font-style="normal" font-weight="normal" text-decoration="none" x="200" y="0"></text><text fill="#eeeeee" stroke="none" font-family="Arial" font-size="24px" font-style="normal" font-weight="normal" text-decoration="none" x="200" y="30"></text><text fill="#eeeeee" stroke="none" font-family="Arial" font-size="24px" font-style="normal" font-weight="normal" text-decoration="none" x="200" y="60"></text><text fill="#eeeeee" stroke="none" font-family="Arial" font-size="24px" font-style="normal" font-weight="normal" text-decoration="none" x="200" y="90"></text><text fill="#eeeeee" stroke="none" font-family="Arial" font-size="24px" font-style="normal" font-weight="normal" text-decoration="none" x="200" y="120"></text><text fill="#eeeeee" stroke="none" font-family="Arial" font-size="24px" font-style="normal" font-weight="normal" text-decoration="none" x="200" y="150"></text><text fill="#eeeeee" stroke="none" font-family="Arial" font-size="24px" font-style="normal" font-weight="normal" text-decoration="none" x="200" y="180"></text><text fill="#eeeeee" stroke="none" font-family="Arial" font-size="24px" font-style="normal" font-weight="normal" text-decoration="none" x="200" y="210"></text><text fill="#eeeeee" stroke="none" font-family="Arial" font-size="24px" font-style="normal" font-weight="normal" text-decoration="none" x="200" y="240"></text><text fill="#eeeeee" stroke="none" font-family="Arial" font-size="24px" font-style="normal" font-weight="normal" text-decoration="none" x="200" y="270"></text><text fill="#eeeeee" stroke="none" font-family="Arial" font-size="24px" font-style="normal" font-weight="normal" text-decoration="none" x="200" y="300"></text><text fill="#eeeeee" stroke="none" font-family="Arial" font-size="24px" font-style="normal" font-weight="normal" text-decoration="none" x="200" y="330"></text><text fill="#eeeeee" stroke="none" font-family="Arial" font-size="24px" font-style="normal" font-weight="normal" text-decoration="none" x="200" y="360"></text><text fill="#eeeeee" stroke="none" font-family="Arial" font-size="24px" font-style="normal" font-weight="normal" text-decoration="none" x="200" y="390"></text><text fill="#eeeeee" stroke="none" font-family="Arial" font-size="24px" font-style="normal" font-weight="normal" text-decoration="none" x="200" y="420"></text><text fill="#eeeeee" stroke="none" font-family="Arial" font-size="24px" font-style="normal" font-weight="normal" text-decoration="none" x="200" y="450"></text><text fill="#eeeeee" stroke="none" font-family="Arial" font-size="24px" font-style="normal" font-weight="normal" text-decoration="none" x="200" y="480"></text><text fill="#eeeeee" stroke="none" font-family="Arial" font-size="24px" font-style="normal" font-weight="normal" text-decoration="none" x="200" y="510"></text><text fill="#eeeeee" stroke="none" font-family="Arial" font-size="24px" font-style="normal" font-weight="normal" text-decoration="none" x="200" y="540"></text><text fill="#eeeeee" stroke="none" font-family="Arial" font-size="24px" font-style="normal" font-weight="normal" text-decoration="none" x="400" y="0"></text><text fill="#eeeeee" stroke="none" font-family="Arial" font-size="24px" font-style="normal" font-weight="normal" text-decoration="none" x="400" y="30"></text><text fill="#eeeeee" stroke="none" font-family="Arial" font-size="24px" font-style="normal" font-weight="normal" text-decoration="none" x="400" y="60"></text><text fill="#eeeeee" stroke="none" font-family="Arial" font-size="24px" font-style="normal" font-weight="normal" text-decoration="none" x="400" y="90"></text><text fill="#eeeeee" stroke="none" font-family="Arial" font-size="24px" font-style="normal" font-weight="normal" text-decoration="none" x="400" y="120"></text><text fill="#eeeeee" stroke="none" font-family="Arial" font-size="24px" font-style="normal" font-weight="normal" text-decoration="none" x="400" y="150"></text><text fill="#eeeeee" stroke="none" font-family="Arial" font-size="24px" font-style="normal" font-weight="normal" text-decoration="none" x="400" y="180"></text><text fill="#eeeeee" stroke="none" font-family="Arial" font-size="24px" font-style="normal" font-weight="normal" text-decoration="none" x="400" y="210"></text><text fill="#eeeeee" stroke="none" font-family="Arial" font-size="24px" font-style="normal" font-weight="normal" text-decoration="none" x="400" y="240"></text><text fill="#eeeeee" stroke="none" font-family="Arial" font-size="24px" font-style="normal" font-weight="normal" text-decoration="none" x="400" y="270"></text><text fill="#eeeeee" stroke="none" font-family="Arial" font-size="24px" font-style="normal" font-weight="normal" text-decoration="none" x="400" y="300"></text><text fill="#eeeeee" stroke="none" font-family="Arial" font-size="24px" font-style="normal" font-weight="normal" text-decoration="none" x="400" y="330"></text><text fill="#eeeeee" stroke="none" font-family="Arial" font-size="24px" font-style="normal" font-weight="normal" text-decoration="none" x="400" y="360"></text><text fill="#eeeeee" stroke="none" font-family="Arial" font-size="24px" font-style="normal" font-weight="normal" text-decoration="none" x="400" y="390"></text><text fill="#eeeeee" stroke="none" font-family="Arial" font-size="24px" font-style="normal" font-weight="normal" text-decoration="none" x="400" y="420"></text><text fill="#eeeeee" stroke="none" font-family="Arial" font-size="24px" font-style="normal" font-weight="normal" text-decoration="none" x="400" y="450"></text><text fill="#eeeeee" stroke="none" font-family="Arial" font-size="24px" font-style="normal" font-weight="normal" text-decoration="none" x="400" y="480"></text><text fill="#eeeeee" stroke="none" font-family="Arial" font-size="24px" font-style="normal" font-weight="normal" text-decoration="none" x="400" y="510"></text><text fill="#eeeeee" stroke="none" font-family="Arial" font-size="24px" font-style="normal" font-weight="normal" text-decoration="none" x="400" y="540"></text><text fill="#eeeeee" stroke="none" font-family="Arial" font-size="24px" font-style="normal" font-weight="normal" text-decoration="none" x="600" y="0"></text><text fill="#eeeeee" stroke="none" font-family="Arial" font-size="24px" font-style="normal" font-weight="normal" text-decoration="none" x="600" y="30"></text><text fill="#eeeeee" stroke="none" font-family="Arial" font-size="24px" font-style="normal" font-weight="normal" text-decoration="none" x="600" y="60"></text><text fill="#eeeeee" stroke="none" font-family="Arial" font-size="24px" font-style="normal" font-weight="normal" text-decoration="none" x="600" y="90"></text><text fill="#eeeeee" stroke="none" font-family="Arial" font-size="24px" font-style="normal" font-weight="normal" text-decoration="none" x="600" y="120"></text><text fill="#eeeeee" stroke="none" font-family="Arial" font-size="24px" font-style="normal" font-weight="normal" text-decoration="none" x="600" y="150"></text><text fill="#eeeeee" stroke="none" font-family="Arial" font-size="24px" font-style="normal" font-weight="normal" text-decoration="none" x="600" y="180"></text><text fill="#eeeeee" stroke="none" font-family="Arial" font-size="24px" font-style="normal" font-weight="normal" text-decoration="none" x="600" y="210"></text><text fill="#eeeeee" stroke="none" font-family="Arial" font-size="24px" font-style="normal" font-weight="normal" text-decoration="none" x="600" y="240"></text><text fill="#eeeeee" stroke="none" font-family="Arial" font-size="24px" font-style="normal" font-weight="normal" text-decoration="none" x="600" y="270"></text><text fill="#eeeeee" stroke="none" font-family="Arial" font-size="24px" font-style="normal" font-weight="normal" text-decoration="none" x="600" y="300"></text><text fill="#eeeeee" stroke="none" font-family="Arial" font-size="24px" font-style="normal" font-weight="normal" text-decoration="none" x="600" y="330"></text><text fill="#eeeeee" stroke="none" font-family="Arial" font-size="24px" font-style="normal" font-weight="normal" text-decoration="none" x="600" y="360"></text><text fill="#eeeeee" stroke="none" font-family="Arial" font-size="24px" font-style="normal" font-weight="normal" text-decoration="none" x="600" y="390"></text><text fill="#eeeeee" stroke="none" font-family="Arial" font-size="24px" font-style="normal" font-weight="normal" text-decoration="none" x="600" y="420"></text><text fill="#eeeeee" stroke="none" font-family="Arial" font-size="24px" font-style="normal" font-weight="normal" text-decoration="none" x="600" y="450"></text><text fill="#eeeeee" stroke="none" font-family="Arial" font-size="24px" font-style="normal" font-weight="normal" text-decoration="none" x="600" y="480"></text><text fill="#eeeeee" stroke="none" font-family="Arial" font-size="24px" font-style="normal" font-weight="normal" text-decoration="none" x="600" y="510"></text><text fill="#eeeeee" stroke="none" font-family="Arial" font-size="24px" font-style="normal" font-weight="normal" text-decoration="none" x="600" y="540"></text><text fill="#eeeeee" stroke="none" font-family="Arial" font-size="24px" font-style="normal" font-weight="normal" text-decoration="none" x="800" y="0"></text><text fill="#eeeeee" stroke="none" font-family="Arial" font-size="24px" font-style="normal" font-weight="normal" text-decoration="none" x="800" y="30"></text><text fill="#eeeeee" stroke="none" font-family="Arial" font-size="24px" font-style="normal" font-weight="normal" text-decoration="none" x="800" y="60"></text><text fill="#eeeeee" stroke="none" font-family="Arial" font-size="24px" font-style="normal" font-weight="normal" text-decoration="none" x="800" y="90"></text><text fill="#eeeeee" stroke="none" font-family="Arial" font-size="24px" font-style="normal" font-weight="normal" text-decoration="none" x="800" y="120"></text><text fill="#eeeeee" stroke="none" font-family="Arial" font-size="24px" font-style="normal" font-weight="normal" text-decoration="none" x="800" y="150"></text><text fill="#eeeeee" stroke="none" font-family="Arial" font-size="24px" font-style="normal" font-weight="normal" text-decoration="none" x="800" y="180"></text><text fill="#eeeeee" stroke="none" font-family="Arial" font-size="24px" font-style="normal" font-weight="normal" text-decoration="none" x="800" y="210"></text><text fill="#eeeeee" stroke="none" font-family="Arial" font-size="24px" font-style="normal" font-weight="normal" text-decoration="none" x="800" y="240"></text><text fill="#eeeeee" stroke="none" font-family="Arial" font-size="24px" font-style="normal" font-weight="normal" text-decoration="none" x="800" y="270"></text><text fill="#eeeeee" stroke="none" font-family="Arial" font-size="24px" font-style="normal" font-weight="normal" text-decoration="none" x="800" y="300"></text><text fill="#eeeeee" stroke="none" font-family="Arial" font-size="24px" font-style="normal" font-weight="normal" text-decoration="none" x="800" y="330"></text><text fill="#eeeeee" stroke="none" font-family="Arial" font-size="24px" font-style="normal" font-weight="normal" text-decoration="none" x="800" y="360"></text><text fill="#eeeeee" stroke="none" font-family="Arial" font-size="24px" font-style="normal" font-weight="normal" text-decoration="none" x="800" y="390"></text><text fill="#eeeeee" stroke="none" font-family="Arial" font-size="24px" font-style="normal" font-weight="normal" text-decoration="none" x="800" y="420"></text><text fill="#eeeeee" stroke="none" font-family="Arial" font-size="24px" font-style="normal" font-weight="normal" text-decoration="none" x="800" y="450"></text><text fill="#eeeeee" stroke="none" font-family="Arial" font-size="24px" font-style="normal" font-weight="normal" text-decoration="none" x="800" y="480"></text><text fill="#eeeeee" stroke="none" font-family="Arial" font-size="24px" font-style="normal" font-weight="normal" text-decoration="none" x="800" y="510"></text><text fill="#eeeeee" stroke="none" font-family="Arial" font-size="24px" font-style="normal" font-weight="normal" text-decoration="none" x="800" y="540"></text><text fill="#eeeeee" stroke="none" font-family="Arial" font-size="24px" font-style="normal" font-weight="normal" text-decoration="none" x="1000" y="0"></text><text fill="#eeeeee" stroke="none" font-family="Arial" font-size="24px" font-style="normal" font-weight="normal" text-decoration="none" x="1000" y="30"></text><text fill="#eeeeee" stroke="none" font-family="Arial" font-size="24px" font-style="normal" font-weight="normal" text-decoration="none" x="1000" y="60"></text><text fill="#eeeeee" stroke="none" font-family="Arial" font-size="24px" font-style="normal" font-weight="normal" text-decoration="none" x="1000" y="90"></text><text fill="#eeeeee" stroke="none" font-family="Arial" font-size="24px" font-style="normal" font-weight="normal" text-decoration="none" x="1000" y="120"></text><text fill="#eeeeee" stroke="none" font-family="Arial" font-size="24px" font-style="normal" font-weight="normal" text-decoration="none" x="1000" y="150"></text><text fill="#eeeeee" stroke="none" font-family="Arial" font-size="24px" font-style="normal" font-weight="normal" text-decoration="none" x="1000" y="180"></text><text fill="#eeeeee" stroke="none" font-family="Arial" font-size="24px" font-style="normal" font-weight="normal" text-decoration="none" x="1000" y="210"></text><text fill="#eeeeee" stroke="none" font-family="Arial" font-size="24px" font-style="normal" font-weight="normal" text-decoration="none" x="1000" y="240"></text><text fill="#eeeeee" stroke="none" font-family="Arial" font-size="24px" font-style="normal" font-weight="normal" text-decoration="none" x="1000" y="270"></text><text fill="#eeeeee" stroke="none" font-family="Arial" font-size="24px" font-style="normal" font-weight="normal" text-decoration="none" x="1000" y="300"></text><text fill="#eeeeee" stroke="none" font-family="Arial" font-size="24px" font-style="normal" font-weight="normal" text-decoration="none" x="1000" y="330"></text><text fill="#eeeeee" stroke="none" font-family="Arial" font-size="24px" font-style="normal" font-weight="normal" text-decoration="none" x="1000" y="360"></text><text fill="#eeeeee" stroke="none" font-family="Arial" font-size="24px" font-style="normal" font-weight="normal" text-decoration="none" x="1000" y="390"></text><text fill="#eeeeee" stroke="none" font-family="Arial" font-size="24px" font-style="normal" font-weight="normal" text-decoration="none" x="1000" y="420"></text><text fill="#eeeeee" stroke="none" font-family="Arial" font-size="24px" font-style="normal" font-weight="normal" text-decoration="none" x="1000" y="450"></text><text fill="#eeeeee" stroke="none" font-family="Arial" font-size="24px" font-style="normal" font-weight="normal" text-decoration="none" x="1000" y="480"></text><text fill="#eeeeee" stroke="none" font-family="Arial" font-size="24px" font-style="normal" font-weight="normal" text-decoration="none" x="1000" y="510"></text><text fill="#eeeeee" stroke="none" font-family="Arial" font-size="24px" font-style="normal" font-weight="normal" text-decoration="none" x="1000" y="540"></text><g transform="translate(-54,-126) scale(1,1)"><rect fill="#C0C0C0" stroke="none" x="71" y="143" width="432" height="15" opacity="0.2"/></g><g transform="translate(-54,-126) scale(1,1)"><rect fill="#C0C0C0" stroke="none" x="71" y="157" width="1080" height="529" opacity="0.2"/></g><g transform="translate(-54,-126) scale(1,1)"><rect fill="#ffffff" stroke="none" x="64" y="151" width="1080" height="528"/></g><g transform="translate(-54,-126) scale(1,1)"><path fill="none" stroke="#000000" d="M 64 151 L 1144 151 L 1144 679 L 64 679 L 64 151 Z Z" stroke-miterlimit="10"/></g><g transform="translate(-54,-126) scale(1,1)"><rect fill="#ffffff" stroke="none" x="64" y="136" width="432" height="15"/></g><g transform="translate(-54,-126) scale(1,1)"><path fill="none" stroke="#000000" d="M 64 136 L 496 136 L 496 151 L 64 151 L 64 136 Z Z" stroke-miterlimit="10"/></g><g transform="translate(-54,-126) scale(1,1)"><rect fill="#ffffff" stroke="none" x="64" y="150" width="1080" height="529"/></g><g transform="translate(-54,-126) scale(1,1)"><path fill="none" stroke="#000000" d="M 64 150 L 1144 150 L 1144 679 L 64 679 L 64 150 Z Z" stroke-miterlimit="10"/></g><g transform="translate(-54,-126) scale(1,1)"><g><path fill="none" stroke="none"/><text fill="#000000" stroke="none" font-family="Arial" font-size="13px" font-style="normal" font-weight="bold" text-decoration="none" x="500.3427734375" y="169">com.iftm.subscription.exceptions</text></g></g><g transform="translate(-54,-126) scale(1,1)"><rect fill="#C0C0C0" stroke="none" x="447" y="503" width="185.20000000000005" height="15" opacity="0.2"/></g><g transform="translate(-54,-126) scale(1,1)"><rect fill="#C0C0C0" stroke="none" x="447" y="517" width="463" height="153" opacity="0.2"/></g><g transform="translate(-54,-126) scale(1,1)"><rect fill="#ffffff" stroke="none" x="440" y="511" width="463" height="152"/></g><g transform="translate(-54,-126) scale(1,1)"><path fill="none" stroke="#000000" d="M 440 511 L 903 511 L 903 663 L 440 663 L 440 511 Z Z" stroke-miterlimit="10"/></g><g transform="translate(-54,-126) scale(1,1)"><rect fill="#ffffff" stroke="none" x="440" y="496" width="185.20000000000005" height="15"/></g><g transform="translate(-54,-126) scale(1,1)"><path fill="none" stroke="#000000" d="M 440 496 L 625.2 496 L 625.2 511 L 440 511 L 440 496 Z Z" stroke-miterlimit="10"/></g><g transform="translate(-54,-126) scale(1,1)"><rect fill="#ffffff" stroke="none" x="440" y="510" width="463" height="153"/></g><g transform="translate(-54,-126) scale(1,1)"><path fill="none" stroke="#000000" d="M 440 510 L 903 510 L 903 663 L 440 663 L 440 510 Z Z" stroke-miterlimit="10"/></g><g transform="translate(-54,-126) scale(1,1)"><g><path fill="none" stroke="none"/><text fill="#000000" stroke="none" font-family="Arial" font-size="13px" font-style="normal" font-weight="bold" text-decoration="none" x="542.56005859375" y="529">com.iftm.subscription.exceptions.handler</text></g></g><g transform="translate(-54,-126) scale(1,1)"><rect fill="#C0C0C0" stroke="none" x="87" y="319" width="422.6640625" height="160" opacity="0.2"/></g><g transform="translate(-54,-126) scale(1,1)"><rect fill="#ffffff" stroke="none" x="80" y="312" width="422.6640625" height="160"/></g><g transform="translate(-54,-126) scale(1,1)"><path fill="none" stroke="#000000" d="M 80 312 L 502.6640625 312 L 502.6640625 472 L 80 472 L 80 312 Z Z" stroke-miterlimit="10"/></g><g transform="translate(-54,-126) scale(1,1)"><path fill="none" stroke="#000000" d="M 80 337 L 502.6640625 337" stroke-miterlimit="10"/></g><g transform="translate(-54,-126) scale(1,1)"><path fill="none" stroke="#000000" d="M 80 390 L 502.6640625 390" stroke-miterlimit="10"/></g><g transform="translate(-54,-126) scale(1,1)"><g><path fill="none" stroke="none"/><text fill="#000000" stroke="none" font-family="Arial" font-size="13px" font-style="normal" font-weight="bold" text-decoration="none" x="229.204345703125" y="330">ExceptionResponse</text></g></g><g transform="translate(-54,-126) scale(1,1)"><g><path fill="none" stroke="none"/><text fill="#000000" stroke="none" font-family="Arial" font-size="13px" font-style="normal" font-weight="normal" text-decoration="none" x="85" y="353">-timestamp: Date</text></g></g><g transform="translate(-54,-126) scale(1,1)"><g><path fill="none" stroke="none"/><text fill="#000000" stroke="none" font-family="Arial" font-size="13px" font-style="normal" font-weight="normal" text-decoration="none" x="85" y="368">-message: String</text></g></g><g transform="translate(-54,-126) scale(1,1)"><g><path fill="none" stroke="none"/><text fill="#000000" stroke="none" font-family="Arial" font-size="13px" font-style="normal" font-weight="normal" text-decoration="none" x="85" y="383">-datails: String</text></g></g><g transform="translate(-54,-126) scale(1,1)"><g><path fill="none" stroke="none"/><text fill="#000000" stroke="none" font-family="Arial" font-size="13px" font-style="normal" font-weight="normal" text-decoration="none" x="85" y="406">+ExceptionResponse()</text></g></g><g transform="translate(-54,-126) scale(1,1)"><g><path fill="none" stroke="none"/><text fill="#000000" stroke="none" font-family="Arial" font-size="13px" font-style="normal" font-weight="normal" text-decoration="none" x="85" y="421">+ExceptionResponse(timestamp: Date, message: String, datails: String)</text></g></g><g transform="translate(-54,-126) scale(1,1)"><g><path fill="none" stroke="none"/><text fill="#000000" stroke="none" font-family="Arial" font-size="13px" font-style="normal" font-weight="normal" text-decoration="none" x="85" y="436">+GettersAndSetters()</text></g></g><g transform="translate(-54,-126) scale(1,1)"><g><path fill="none" stroke="none"/><text fill="#000000" stroke="none" font-family="Arial" font-size="13px" font-style="normal" font-weight="normal" text-decoration="none" x="85" y="451">+equals()</text></g></g><g transform="translate(-54,-126) scale(1,1)"><g><path fill="none" stroke="none"/><text fill="#000000" stroke="none" font-family="Arial" font-size="13px" font-style="normal" font-weight="normal" text-decoration="none" x="85" y="466">+hashCode()</text></g></g><g transform="translate(-54,-126) scale(1,1)"><rect fill="#C0C0C0" stroke="none" x="255" y="247" width="80.5380859375" height="44" opacity="0.2"/></g><g transform="translate(-54,-126) scale(1,1)"><rect fill="#ffffff" stroke="none" x="248" y="240" width="80.5380859375" height="44"/></g><g transform="translate(-54,-126) scale(1,1)"><path fill="none" stroke="#000000" d="M 248 240 L 328.5380859375 240 L 328.5380859375 284 L 248 284 L 248 240 Z Z" stroke-miterlimit="10"/></g><g transform="translate(-54,-126) scale(1,1)"><path fill="none" stroke="#000000" d="M 248 265 L 328.5380859375 265" stroke-miterlimit="10"/></g><g transform="translate(-54,-126) scale(1,1)"><path fill="none" stroke="#000000" d="M 248 275 L 328.5380859375 275" stroke-miterlimit="10"/></g><g transform="translate(-54,-126) scale(1,1)"><g><path fill="none" stroke="none"/><text fill="#000000" stroke="none" font-family="Arial" font-size="13px" font-style="normal" font-weight="bold" text-decoration="none" x="252.5" y="258">Serializable</text></g></g><g transform="translate(-54,-126) scale(1,1)"><rect fill="#C0C0C0" stroke="none" x="535" y="319" width="299.10693359375" height="72" opacity="0.2"/></g><g transform="translate(-54,-126) scale(1,1)"><rect fill="#ffffff" stroke="none" x="528" y="312" width="299.10693359375" height="72"/></g><g transform="translate(-54,-126) scale(1,1)"><path fill="none" stroke="#000000" d="M 528 312 L 827.10693359375 312 L 827.10693359375 384 L 528 384 L 528 312 Z Z" stroke-miterlimit="10"/></g><g transform="translate(-54,-126) scale(1,1)"><path fill="none" stroke="#000000" d="M 528 337 L 827.10693359375 337" stroke-miterlimit="10"/></g><g transform="translate(-54,-126) scale(1,1)"><path fill="none" stroke="#000000" d="M 528 347 L 827.10693359375 347" stroke-miterlimit="10"/></g><g transform="translate(-54,-126) scale(1,1)"><g><path fill="none" stroke="none"/><text fill="#000000" stroke="none" font-family="Arial" font-size="13px" font-style="normal" font-weight="bold" text-decoration="none" x="580.396240234375" y="330">RequiredObjectIsNullException</text></g></g><g transform="translate(-54,-126) scale(1,1)"><g><path fill="none" stroke="none"/><text fill="#000000" stroke="none" font-family="Arial" font-size="13px" font-style="normal" font-weight="normal" text-decoration="none" x="533" y="363">+RequiredObjectIsNullException()</text></g></g><g transform="translate(-54,-126) scale(1,1)"><g><path fill="none" stroke="none"/><text fill="#000000" stroke="none" font-family="Arial" font-size="13px" font-style="normal" font-weight="normal" text-decoration="none" x="533" y="378">+RequiredObjectIsNullException(message: String)</text></g></g><g transform="translate(-54,-126) scale(1,1)"><rect fill="#C0C0C0" stroke="none" x="783" y="207" width="123.12451171875" height="44" opacity="0.2"/></g><g transform="translate(-54,-126) scale(1,1)"><rect fill="#ffffff" stroke="none" x="776" y="200" width="123.12451171875" height="44"/></g><g transform="translate(-54,-126) scale(1,1)"><path fill="none" stroke="#000000" d="M 776 200 L 899.12451171875 200 L 899.12451171875 244 L 776 244 L 776 200 Z Z" stroke-miterlimit="10"/></g><g transform="translate(-54,-126) scale(1,1)"><path fill="none" stroke="#000000" d="M 776 225 L 899.12451171875 225" stroke-miterlimit="10"/></g><g transform="translate(-54,-126) scale(1,1)"><path fill="none" stroke="#000000" d="M 776 235 L 899.12451171875 235" stroke-miterlimit="10"/></g><g transform="translate(-54,-126) scale(1,1)"><g><path fill="none" stroke="none"/><text fill="#000000" stroke="none" font-family="Arial" font-size="13px" font-style="normal" font-weight="bold" text-decoration="none" x="780.5" y="218">RuntimeException</text></g></g><g transform="translate(-54,-126) scale(1,1)"><path fill="none" stroke="#000000" d="M 296 312 L 296 284" stroke-miterlimit="10"/></g><g transform="translate(-54,-126) scale(1,1)"><rect fill="#C0C0C0" stroke="none" x="847" y="319" width="289.00146484375" height="72" opacity="0.2"/></g><g transform="translate(-54,-126) scale(1,1)"><rect fill="#ffffff" stroke="none" x="840" y="312" width="289.00146484375" height="72"/></g><g transform="translate(-54,-126) scale(1,1)"><path fill="none" stroke="#000000" d="M 840 312 L 1129.00146484375 312 L 1129.00146484375 384 L 840 384 L 840 312 Z Z" stroke-miterlimit="10"/></g><g transform="translate(-54,-126) scale(1,1)"><path fill="none" stroke="#000000" d="M 840 337 L 1129.00146484375 337" stroke-miterlimit="10"/></g><g transform="translate(-54,-126) scale(1,1)"><path fill="none" stroke="#000000" d="M 840 347 L 1129.00146484375 347" stroke-miterlimit="10"/></g><g transform="translate(-54,-126) scale(1,1)"><g><path fill="none" stroke="none"/><text fill="#000000" stroke="none" font-family="Arial" font-size="13px" font-style="normal" font-weight="bold" text-decoration="none" x="893.132568359375" y="330">ResourceNotFoundException</text></g></g><g transform="translate(-54,-126) scale(1,1)"><g><path fill="none" stroke="none"/><text fill="#000000" stroke="none" font-family="Arial" font-size="13px" font-style="normal" font-weight="normal" text-decoration="none" x="845" y="363">+ResourceNotFoundException()</text></g></g><g transform="translate(-54,-126) scale(1,1)"><g><path fill="none" stroke="none"/><text fill="#000000" stroke="none" font-family="Arial" font-size="13px" font-style="normal" font-weight="normal" text-decoration="none" x="845" y="378">+ResourceNotFoundException(message: String)</text></g></g><g transform="translate(-54,-126) scale(1,1)"><rect fill="#C0C0C0" stroke="none" x="535" y="567" width="291.43896484375" height="87" opacity="0.2"/></g><g transform="translate(-54,-126) scale(1,1)"><rect fill="#ffffff" stroke="none" x="528" y="560" width="291.43896484375" height="87"/></g><g transform="translate(-54,-126) scale(1,1)"><path fill="none" stroke="#000000" d="M 528 560 L 819.43896484375 560 L 819.43896484375 647 L 528 647 L 528 560 Z Z" stroke-miterlimit="10"/></g><g transform="translate(-54,-126) scale(1,1)"><path fill="none" stroke="#000000" d="M 528 585 L 819.43896484375 585" stroke-miterlimit="10"/></g><g transform="translate(-54,-126) scale(1,1)"><path fill="none" stroke="#000000" d="M 528 595 L 819.43896484375 595" stroke-miterlimit="10"/></g><g transform="translate(-54,-126) scale(1,1)"><g><path fill="none" stroke="none"/><text fill="#000000" stroke="none" font-family="Arial" font-size="13px" font-style="normal" font-weight="bold" text-decoration="none" x="532.5" y="578">CustomizedResponseEntityExceptionHandler</text></g></g><g transform="translate(-54,-126) scale(1,1)"><g><path fill="none" stroke="none"/><text fill="#000000" stroke="none" font-family="Arial" font-size="13px" font-style="normal" font-weight="normal" text-decoration="none" x="533" y="611">+handleAllExceptions()</text></g></g><g transform="translate(-54,-126) scale(1,1)"><g><path fill="none" stroke="none"/><text fill="#000000" stroke="none" font-family="Arial" font-size="13px" font-style="normal" font-weight="normal" text-decoration="none" x="533" y="626">+handleNotFoundException()</text></g></g><g transform="translate(-54,-126) scale(1,1)"><g><path fill="none" stroke="none"/><text fill="#000000" stroke="none" font-family="Arial" font-size="13px" font-style="normal" font-weight="normal" text-decoration="none" x="533" y="641">+handlwBadRequestException()</text></g></g><g transform="translate(-54,-126) scale(1,1)"><path fill="none" stroke="#000000" d="M 593 559 L 438 473" stroke-miterlimit="10"/></g><g transform="translate(-54,-126) scale(1,1)"><path fill="none" stroke="#000000" d="M 672 560 L 672 384" stroke-miterlimit="10"/></g><g transform="translate(-54,-126) scale(1,1)"><path fill="none" stroke="#000000" d="M 727 559 L 939 385" stroke-miterlimit="10"/></g><g transform="translate(-54,-126) scale(1,1)"><path fill="none" stroke="#000000" d="M 808 312 L 808 244" stroke-miterlimit="10"/></g><g transform="translate(-54,-126) scale(1,1)"><path fill="#FFFFFF" stroke="none" d="M 816.419035512032 264.3253497152483 L 808 244 L 799.580964487968 264.3253497152483"/></g><g transform="translate(-54,-126) scale(1,1)"><path fill="none" stroke="#000000" d="M 816.419035512032 264.3253497152483 L 808 244 L 799.580964487968 264.3253497152483 L 816.419035512032 264.3253497152483" stroke-miterlimit="10"/></g><g transform="translate(-54,-126) scale(1,1)"><path fill="none" stroke="#000000" d="M 864 312 L 864 244" stroke-miterlimit="10"/></g><g transform="translate(-54,-126) scale(1,1)"><path fill="#FFFFFF" stroke="none" d="M 872.419035512032 264.3253497152483 L 864 244 L 855.580964487968 264.3253497152483"/></g><g transform="translate(-54,-126) scale(1,1)"><path fill="none" stroke="#000000" d="M 872.419035512032 264.3253497152483 L 864 244 L 855.580964487968 264.3253497152483 L 872.419035512032 264.3253497152483" stroke-miterlimit="10"/></g></g></svg>