<svg version="1.1" xmlns="http://www.w3.org/2000/svg" xmlns:xlink="http://www.w3.org/1999/xlink" width="639.10693359375" height="272"><defs/><g><text fill="#eeeeee" stroke="none" font-family="Arial" font-size="24px" font-style="normal" font-weight="normal" text-decoration="none" x="0" y="0"></text><text fill="#eeeeee" stroke="none" font-family="Arial" font-size="24px" font-style="normal" font-weight="normal" text-decoration="none" x="0" y="30"></text><text fill="#eeeeee" stroke="none" font-family="Arial" font-size="24px" font-style="normal" font-weight="normal" text-decoration="none" x="0" y="60"></text><text fill="#eeeeee" stroke="none" font-family="Arial" font-size="24px" font-style="normal" font-weight="normal" text-decoration="none" x="0" y="90"></text><text fill="#eeeeee" stroke="none" font-family="Arial" font-size="24px" font-style="normal" font-weight="normal" text-decoration="none" x="0" y="120"></text><text fill="#eeeeee" stroke="none" font-family="Arial" font-size="24px" font-style="normal" font-weight="normal" text-decoration="none" x="0" y="150"></text><text fill="#eeeeee" stroke="none" font-family="Arial" font-size="24px" font-style="normal" font-weight="normal" text-decoration="none" x="0" y="180"></text><text fill="#eeeeee" stroke="none" font-family="Arial" font-size="24px" font-style="normal" font-weight="normal" text-decoration="none" x="0" y="210"></text><text fill="#eeeeee" stroke="none" font-family="Arial" font-size="24px" font-style="normal" font-weight="normal" text-decoration="none" x="0" y="240"></text><text fill="#eeeeee" stroke="none" font-family="Arial" font-size="24px" font-style="normal" font-weight="normal" text-decoration="none" x="0" y="270"></text><text fill="#eeeeee" stroke="none" font-family="Arial" font-size="24px" font-style="normal" font-weight="normal" text-decoration="none" x="200" y="0"></text><text fill="#eeeeee" stroke="none" font-family="Arial" font-size="24px" font-style="normal" font-weight="normal" text-decoration="none" x="200" y="30"></text><text fill="#eeeeee" stroke="none" font-family="Arial" font-size="24px" font-style="normal" font-weight="normal" text-decoration="none" x="200" y="60"></text><text fill="#eeeeee" stroke="none" font-family="Arial" font-size="24px" font-style="normal" font-weight="normal" text-decoration="none" x="200" y="90"></text><text fill="#eeeeee" stroke="none" font-family="Arial" font-size="24px" font-style="normal" font-weight="normal" text-decoration="none" x="200" y="120"></text><text fill="#eeeeee" stroke="none" font-family="Arial" font-size="24px" font-style="normal" font-weight="normal" text-decoration="none" x="200" y="150"></text><text fill="#eeeeee" stroke="none" font-family="Arial" font-size="24px" font-style="normal" font-weight="normal" text-decoration="none" x="200" y="180"></text><text fill="#eeeeee" stroke="none" font-family="Arial" font-size="24px" font-style="normal" font-weight="normal" text-decoration="none" x="200" y="210"></text><text fill="#eeeeee" stroke="none" font-family="Arial" font-size="24px" font-style="normal" font-weight="normal" text-decoration="none" x="200" y="240"></text><text fill="#eeeeee" stroke="none" font-family="Arial" font-size="24px" font-style="normal" font-weight="normal" text-decoration="none" x="200" y="270"></text><text fill="#eeeeee" stroke="none" font-family="Arial" font-size="24px" font-style="normal" font-weight="normal" text-decoration="none" x="400" y="0"></text><text fill="#eeeeee" stroke="none" font-family="Arial" font-size="24px" font-style="normal" font-weight="normal" text-decoration="none" x="400" y="30"></text><text fill="#eeeeee" stroke="none" font-family="Arial" font-size="24px" font-style="normal" font-weight="normal" text-decoration="none" x="400" y="60"></text><text fill="#eeeeee" stroke="none" font-family="Arial" font-size="24px" font-style="normal" font-weight="normal" text-decoration="none" x="400" y="90"></text><text fill="#eeeeee" stroke="none" font-family="Arial" font-size="24px" font-style="normal" font-weight="normal" text-decoration="none" x="400" y="120"></text><text fill="#eeeeee" stroke="none" font-family="Arial" font-size="24px" font-style="normal" font-weight="normal" text-decoration="none" x="400" y="150"></text><text fill="#eeeeee" stroke="none" font-family="Arial" font-size="24px" font-style="normal" font-weight="normal" text-decoration="none" x="400" y="180"></text><text fill="#eeeeee" stroke="none" font-family="Arial" font-size="24px" font-style="normal" font-weight="normal" text-decoration="none" x="400" y="210"></text><text fill="#eeeeee" stroke="none" font-family="Arial" font-size="24px" font-style="normal" font-weight="normal" text-decoration="none" x="400" y="240"></text><text fill="#eeeeee" stroke="none" font-family="Arial" font-size="24px" font-style="normal" font-weight="normal" text-decoration="none" x="400" y="270"></text><text fill="#eeeeee" stroke="none" font-family="Arial" font-size="24px" font-style="normal" font-weight="normal" text-decoration="none" x="600" y="0"></text><text fill="#eeeeee" stroke="none" font-family="Arial" font-size="24px" font-style="normal" font-weight="normal" text-decoration="none" x="600" y="30"></text><text fill="#eeeeee" stroke="none" font-family="Arial" font-size="24px" font-style="normal" font-weight="normal" text-decoration="none" x="600" y="60"></text><text fill="#eeeeee" stroke="none" font-family="Arial" font-size="24px" font-style="normal" font-weight="normal" text-decoration="none" x="600" y="90"></text><text fill="#eeeeee" stroke="none" font-family="Arial" font-size="24px" font-style="normal" font-weight="normal" text-decoration="none" x="600" y="120"></text><text fill="#eeeeee" stroke="none" font-family="Arial" font-size="24px" font-style="normal" font-weight="normal" text-decoration="none" x="600" y="150"></text><text fill="#eeeeee" stroke="none" font-family="Arial" font-size="24px" font-style="normal" font-weight="normal" text-decoration="none" x="600" y="180"></text><text fill="#eeeeee" stroke="none" font-family="Arial" font-size="24px" font-style="normal" font-weight="normal" text-decoration="none" x="600" y="210"></text><text fill="#eeeeee" stroke="none" font-family="Arial" font-size="24px" font-style="normal" font-weight="normal" text-decoration="none" x="600" y="240"></text><text fill="#eeeeee" stroke="none" font-family="Arial" font-size="24px" font-style="normal" font-weight="normal" text-decoration="none" x="600" y="270"></text><g transform="translate(-238,-286) scale(1,1)"><rect fill="#C0C0C0" stroke="none" x="255" y="303" width="289.00146484375" height="72" opacity="0.2"/></g><g transform="translate(-238,-286) scale(1,1)"><rect fill="#ffffff" stroke="none" x="248" y="296" width="289.00146484375" height="72"/></g><g transform="translate(-238,-286) scale(1,1)"><path fill="none" stroke="#000000" d="M 248 296 L 537.00146484375 296 L 537.00146484375 368 L 248 368 L 248 296 Z Z" stroke-miterlimit="10"/></g><g transform="translate(-238,-286) scale(1,1)"><path fill="none" stroke="#000000" d="M 248 321 L 537.00146484375 321" stroke-miterlimit="10"/></g><g transform="translate(-238,-286) scale(1,1)"><path fill="none" stroke="#000000" d="M 248 331 L 537.00146484375 331" stroke-miterlimit="10"/></g><g transform="translate(-238,-286) scale(1,1)"><g><path fill="none" stroke="none"/><text fill="#000000" stroke="none" font-family="Arial" font-size="13px" font-style="normal" font-weight="bold" text-decoration="none" x="301.132568359375" y="314">ResourceNotFoundException</text></g></g><g transform="translate(-238,-286) scale(1,1)"><g><path fill="none" stroke="none"/><text fill="#000000" stroke="none" font-family="Arial" font-size="13px" font-style="normal" font-weight="normal" text-decoration="none" x="253" y="347">+ResourceNotFoundException()</text></g></g><g transform="translate(-238,-286) scale(1,1)"><g><path fill="none" stroke="none"/><text fill="#000000" stroke="none" font-family="Arial" font-size="13px" font-style="normal" font-weight="normal" text-decoration="none" x="253" y="362">+ResourceNotFoundException(message: String)</text></g></g><g transform="translate(-238,-286) scale(1,1)"><rect fill="#C0C0C0" stroke="none" x="575" y="303" width="299.10693359375" height="72" opacity="0.2"/></g><g transform="translate(-238,-286) scale(1,1)"><rect fill="#ffffff" stroke="none" x="568" y="296" width="299.10693359375" height="72"/></g><g transform="translate(-238,-286) scale(1,1)"><path fill="none" stroke="#000000" d="M 568 296 L 867.10693359375 296 L 867.10693359375 368 L 568 368 L 568 296 Z Z" stroke-miterlimit="10"/></g><g transform="translate(-238,-286) scale(1,1)"><path fill="none" stroke="#000000" d="M 568 321 L 867.10693359375 321" stroke-miterlimit="10"/></g><g transform="translate(-238,-286) scale(1,1)"><path fill="none" stroke="#000000" d="M 568 331 L 867.10693359375 331" stroke-miterlimit="10"/></g><g transform="translate(-238,-286) scale(1,1)"><g><path fill="none" stroke="none"/><text fill="#000000" stroke="none" font-family="Arial" font-size="13px" font-style="normal" font-weight="bold" text-decoration="none" x="620.396240234375" y="314">RequiredObjectIsNullException</text></g></g><g transform="translate(-238,-286) scale(1,1)"><g><path fill="none" stroke="none"/><text fill="#000000" stroke="none" font-family="Arial" font-size="13px" font-style="normal" font-weight="normal" text-decoration="none" x="573" y="347">+RequiredObjectIsNullException()</text></g></g><g transform="translate(-238,-286) scale(1,1)"><g><path fill="none" stroke="none"/><text fill="#000000" stroke="none" font-family="Arial" font-size="13px" font-style="normal" font-weight="normal" text-decoration="none" x="573" y="362">+RequiredObjectIsNullException(message: String)</text></g></g><g transform="translate(-238,-286) scale(1,1)"><rect fill="#C0C0C0" stroke="none" x="383" y="511" width="84.1689453125" height="44" opacity="0.2"/></g><g transform="translate(-238,-286) scale(1,1)"><rect fill="#ffffff" stroke="none" x="376" y="504" width="84.1689453125" height="44"/></g><g transform="translate(-238,-286) scale(1,1)"><path fill="none" stroke="#000000" d="M 376 504 L 460.1689453125 504 L 460.1689453125 548 L 376 548 L 376 504 Z Z" stroke-miterlimit="10"/></g><g transform="translate(-238,-286) scale(1,1)"><path fill="none" stroke="#000000" d="M 376 529 L 460.1689453125 529" stroke-miterlimit="10"/></g><g transform="translate(-238,-286) scale(1,1)"><path fill="none" stroke="#000000" d="M 376 539 L 460.1689453125 539" stroke-miterlimit="10"/></g><g transform="translate(-238,-286) scale(1,1)"><g><path fill="none" stroke="none"/><text fill="#000000" stroke="none" font-family="Arial" font-size="13px" font-style="normal" font-weight="bold" text-decoration="none" x="380.5" y="522">UserService</text></g></g><g transform="translate(-238,-286) scale(1,1)"><rect fill="#C0C0C0" stroke="none" x="511" y="511" width="94.25537109375" height="44" opacity="0.2"/></g><g transform="translate(-238,-286) scale(1,1)"><rect fill="#ffffff" stroke="none" x="504" y="504" width="94.25537109375" height="44"/></g><g transform="translate(-238,-286) scale(1,1)"><path fill="none" stroke="#000000" d="M 504 504 L 598.25537109375 504 L 598.25537109375 548 L 504 548 L 504 504 Z Z" stroke-miterlimit="10"/></g><g transform="translate(-238,-286) scale(1,1)"><path fill="none" stroke="#000000" d="M 504 529 L 598.25537109375 529" stroke-miterlimit="10"/></g><g transform="translate(-238,-286) scale(1,1)"><path fill="none" stroke="#000000" d="M 504 539 L 598.25537109375 539" stroke-miterlimit="10"/></g><g transform="translate(-238,-286) scale(1,1)"><g><path fill="none" stroke="none"/><text fill="#000000" stroke="none" font-family="Arial" font-size="13px" font-style="normal" font-weight="bold" text-decoration="none" x="508.5" y="522">GroupService</text></g></g><g transform="translate(-238,-286) scale(1,1)"><rect fill="#C0C0C0" stroke="none" x="647" y="511" width="89.9453125" height="44" opacity="0.2"/></g><g transform="translate(-238,-286) scale(1,1)"><rect fill="#ffffff" stroke="none" x="640" y="504" width="89.9453125" height="44"/></g><g transform="translate(-238,-286) scale(1,1)"><path fill="none" stroke="#000000" d="M 640 504 L 729.9453125 504 L 729.9453125 548 L 640 548 L 640 504 Z Z" stroke-miterlimit="10"/></g><g transform="translate(-238,-286) scale(1,1)"><path fill="none" stroke="#000000" d="M 640 529 L 729.9453125 529" stroke-miterlimit="10"/></g><g transform="translate(-238,-286) scale(1,1)"><path fill="none" stroke="#000000" d="M 640 539 L 729.9453125 539" stroke-miterlimit="10"/></g><g transform="translate(-238,-286) scale(1,1)"><g><path fill="none" stroke="none"/><text fill="#000000" stroke="none" font-family="Arial" font-size="13px" font-style="normal" font-weight="bold" text-decoration="none" x="644.5" y="522">EmailService</text></g></g><g transform="translate(-238,-286) scale(1,1)"><path fill="none" stroke="#000000" d="M 397 369 L 415 503" stroke-miterlimit="10"/></g><g transform="translate(-238,-286) scale(1,1)"><path fill="none" stroke="#000000" d="M 409.4749710686865 493.4882149252546 L 415 503 L 417.81906230395776 492.3673668488749" stroke-miterlimit="10"/></g><g transform="translate(-238,-286) scale(1,1)"><path fill="none" stroke="#000000" d="M 422 369 L 532 503" stroke-miterlimit="10"/></g><g transform="translate(-238,-286) scale(1,1)"><path fill="none" stroke="#000000" d="M 522.298194704474 497.8158921685883 L 532 503 L 528.8055054877756 492.4740698837885" stroke-miterlimit="10"/></g><g transform="translate(-238,-286) scale(1,1)"><path fill="none" stroke="#000000" d="M 448 369 L 649 503" stroke-miterlimit="10"/></g><g transform="translate(-238,-286) scale(1,1)"><path fill="none" stroke="#000000" d="M 638.2091230681783 500.86529275021616 L 649 503 L 642.8791637187296 493.8602317743892" stroke-miterlimit="10"/></g><g transform="translate(-238,-286) scale(1,1)"><path fill="none" stroke="#000000" d="M 660 369 L 453 503" stroke-miterlimit="10"/></g><g transform="translate(-238,-286) scale(1,1)"><path fill="none" stroke="#000000" d="M 459.2436389474046 493.94367775007686 L 453 503 L 463.8187063145215 501.01113256345894" stroke-miterlimit="10"/></g><g transform="translate(-238,-286) scale(1,1)"><path fill="none" stroke="#000000" d="M 685 369 L 571 503" stroke-miterlimit="10"/></g><g transform="translate(-238,-286) scale(1,1)"><path fill="none" stroke="#000000" d="M 574.3789771813255 492.5318333406426 L 571 503 L 580.7914093098124 497.9871860469673" stroke-miterlimit="10"/></g><g transform="translate(-238,-286) scale(1,1)"><path fill="none" stroke="#000000" d="M 711 369 L 688 503" stroke-miterlimit="10"/></g><g transform="translate(-238,-286) scale(1,1)"><path fill="none" stroke="#000000" d="M 685.5703519851595 492.27168184084843 L 688 503 L 693.8680459338726 493.69591289174696" stroke-miterlimit="10"/></g></g></svg>